<svg width="43" height="63" viewBox="0 0 43 63" fill="none" xmlns="http://www.w3.org/2000/svg">
<path d="M35.617 2H2V25.4043M35.617 2L41.3617 8.38298V18.383M35.617 2V10.2979M41.3617 18.383L35.617 10.2979M41.3617 18.383H17.1064M35.617 10.2979H17.1064V18.383M17.1064 18.383L17.3191 25.5106M17.1064 42.26V61.1489H2V25.4043M17.1064 42.26H39.3338M17.1064 42.26V34.9787H33.0638M39.3338 42.26L33.0638 34.9787M39.3338 42.26V31.3617L33.0638 25.4043M33.0638 34.9787V25.4043M33.0638 25.4043L17.3191 25.5106M2 25.4043L17.3191 25.5106" stroke="black" stroke-width="2.55319"/>
</svg>
