<?xml version="1.0" encoding="UTF-8" standalone="no"?>
<!-- Created with Inkscape (http://www.inkscape.org/) -->

<svg
   width="636.91687mm"
   height="692.49683mm"
   viewBox="0 0 636.91687 692.49683"
   version="1.1"
   id="svg1"
   xml:space="preserve"
   inkscape:version="1.3 (0e150ed, 2023-07-21)"
   sodipodi:docname="F.svg"
   xmlns:inkscape="http://www.inkscape.org/namespaces/inkscape"
   xmlns:sodipodi="http://sodipodi.sourceforge.net/DTD/sodipodi-0.dtd"
   xmlns="http://www.w3.org/2000/svg"
   xmlns:svg="http://www.w3.org/2000/svg"><sodipodi:namedview
     id="namedview1"
     pagecolor="#ffffff"
     bordercolor="#666666"
     borderopacity="1.0"
     inkscape:showpageshadow="2"
     inkscape:pageopacity="0.0"
     inkscape:pagecheckerboard="0"
     inkscape:deskcolor="#d1d1d1"
     inkscape:document-units="mm"
     inkscape:zoom="0.125"
     inkscape:cx="2088"
     inkscape:cy="2020"
     inkscape:window-width="1848"
     inkscape:window-height="1016"
     inkscape:window-x="72"
     inkscape:window-y="27"
     inkscape:window-maximized="1"
     inkscape:current-layer="layer1"
     showgrid="false" /><defs
     id="defs1" /><g
     inkscape:label="Layer 1"
     inkscape:groupmode="layer"
     id="layer1"
     transform="translate(-665.12715,-422.95372)"><path
       d="m 870.62807,511.24207 c -3.39381,-0.86899 -6.55359,-1.77964 -9.46165,-2.73489 -2.90805,-0.95442 -5.55916,-1.94843 -7.93791,-2.97682 -2.37936,-1.02736 -4.48221,-2.0868 -6.29727,-3.17187 -1.81715,-1.08571 -3.3438,-2.19391 -4.57057,-3.32067 -1.22741,-1.12738 -2.14932,-2.26976 -2.76594,-3.42193 -0.61475,-1.15031 -0.92316,-2.30957 -0.92316,-3.46904 -0.003,-1.1628 0.30634,-2.32311 0.92316,-3.47674 0.61892,-1.14822 1.54208,-2.28997 2.76594,-3.41444 1.22532,-1.12529 2.75301,-2.23558 4.57057,-3.32045 1.81506,-1.0857 3.91791,-2.14451 6.29727,-3.17207 1.36077,-0.55224 2.80199,-1.09405 4.3205,-1.62544 1.15031,-0.45845 2.35708,-0.90857 3.61741,-1.35243 2.90702,-0.9565 6.06659,-1.87132 9.46165,-2.74218 3.3963,-0.86689 7.02038,-1.68587 10.85221,-2.45357 3.83414,-0.77103 7.87018,-1.48789 12.08671,-2.14869 4.21424,-0.6585 8.59995,-1.25866 13.13365,-1.7963 4.5331,-0.53973 9.2059,-1.01693 13.9933,-1.42955 4.7893,-0.41052 9.6842,-0.75435 14.65712,-1.0315 4.9707,-0.28133 10.0114,-0.4918 15.0948,-0.6335 5.0815,-0.14593 10.1954,-0.2084 15.3132,-0.2084 5.1207,-0.003 10.237,0.0625 15.3215,0.2084 5.0832,0.14578 10.1241,0.35426 15.0948,0.6335 4.97304,0.27715 9.86764,0.62098 14.65724,1.0315 4.787,0.41262 9.4599,0.88982 13.993,1.42955 4.5335,0.53764 8.9194,1.1378 13.1337,1.7963 4.2135,0.6606 8.2474,1.37744 12.0787,2.14869 3.8321,0.76895 7.4562,1.58584 10.8524,2.45357 3.3976,0.86898 6.5599,1.78589 9.4692,2.74218 1.3087,0.46054 2.5597,0.9294 3.7503,1.40662 1.4692,0.51471 2.8658,1.03777 4.1879,1.57125 2.3794,1.02735 4.4822,2.087 6.2972,3.17229 1.8171,1.08569 3.3438,2.19369 4.5707,3.32045 1.2253,1.12529 2.1478,2.26475 2.7655,3.41422 0.617,1.15447 0.9232,2.31477 0.9232,3.47674 0,0.40636 -0.021,0.81271 -0.1042,1.21907 -0.084,0.40637 -0.1875,0.81272 -0.3439,1.21908 -0.1453,0.40635 -0.3417,0.81271 -0.5709,1.21906 -0.2313,0.40428 -0.498,0.80854 -0.8044,1.21074 -0.3042,0.40011 -0.646,0.79812 -1.0231,1.19614 -0.3772,0.40011 -0.792,0.79813 -1.2441,1.19614 -0.4543,0.39386 -0.9482,0.78354 -1.4776,1.17115 -0.5251,0.38968 -1.0877,0.77937 -1.6879,1.16488 -0.6001,0.38343 -1.2357,0.76271 -1.9066,1.13989 -0.6691,0.37717 -1.3755,0.75228 -2.1174,1.12529 -0.7398,0.37094 -1.5129,0.73769 -2.3205,1.10237 -0.8107,0.3626 -1.6546,0.72312 -2.5315,1.07737 -0.8794,0.35426 -1.7901,0.70852 -2.7347,1.05653 -0.9419,0.348 -1.9151,0.69184 -2.922,1.03152 -1.0086,0.33967 -2.0464,0.67101 -3.1176,1.00027 -1.0689,0.32507 -2.1679,0.64599 -3.2968,0.96065 -1.1294,0.31675 -2.2887,0.63143 -3.477,0.93776 -1.1919,0.30632 -2.4096,0.60432 -3.6563,0.89814 z"
       style="fill:none;fill-rule:evenodd;stroke:#000000;stroke-width:20.7708"
       id="path274"
       sodipodi:nodetypes="cccccscccccccccccccccscccccccccccccsccsccccccccccccccc"
       inkscape:export-filename="f-logo.svg"
       inkscape:export-xdpi="96"
       inkscape:export-ydpi="96" /><path
       d="m 1064.6254,1103.9468 -21.1592,0.4355 m 22.1254,-458.12866 69.7491,78.18286 c -0.8293,-33.564 4.8778,291.7196 3.1392,325.2338 -1.6088,15.6314 -2.8824,49.5505 -18.9996,50.5038 l -48.0609,2.8435"
       style="fill:none;fill-opacity:1;fill-rule:evenodd;stroke:#000000;stroke-width:21.4686;stroke-linecap:round;stroke-opacity:1;paint-order:stroke fill markers"
       id="path276"
       sodipodi:nodetypes="cccccsc" /><path
       d="m 866.57243,624.27766 0.0832,27.13736 0.22996,63.63384 0.10955,30.24467 1.21698,337.08947 c 0.006,1.5525 0.16707,3.0671 0.46922,4.5279 0.30216,1.4608 0.74367,2.8665 1.31465,4.2065 0.57099,1.3399 1.26935,2.6134 2.07998,3.8028 0.80854,1.1899 1.72718,2.2928 2.7435,3.3022 1.01693,1.0107 2.13235,1.9191 3.32745,2.7197 1.19406,0.8002 2.46829,1.4904 3.81217,2.051 1.34409,0.5605 2.75867,0.9981 4.22196,1.2878 1.46288,0.2938 2.97902,0.4414 4.53151,0.4351 l 151.98294,-0.5477 c 1.5526,-0.01 3.0672,-0.1666 4.5279,-0.4687 1.4608,-0.3022 2.8661,-0.7504 4.206,-1.3214 1.34,-0.571 2.6142,-1.2694 3.8033,-2.0779 1.1899,-0.8086 2.2985,-1.7271 3.3079,-2.7435 1.0106,-1.0169 1.9193,-2.1267 2.7197,-3.3218 0.8003,-1.194 1.4899,-2.4737 2.0505,-3.8178 0.5606,-1.3441 0.992,-2.7524 1.2857,-4.2153 0.2918,-1.4629 0.4418,-2.9792 0.4356,-4.5315 l -1.1482,-318.07256 -0.1804,-48.80013 -0.3147,-91.35359"
       style="fill:none;fill-rule:evenodd;stroke:#000000;stroke-width:21.4686;stroke-linecap:round;paint-order:stroke fill markers"
       id="path282"
       sodipodi:nodetypes="cccccssccsscccsscccsccccc" /><path
       d="m 1074.1099,477.19231 c -1.1899,-0.4772 -2.4415,-0.94608 -3.7503,-1.40662 -2.9093,-0.9565 -6.0716,-1.8734 -9.4692,-2.74237 -3.3962,-0.8669 -7.0203,-1.68588 -10.8524,-2.45317 -3.8313,-0.77103 -7.8652,-1.48789 -12.0787,-2.14868 -4.2146,-0.6585 -8.6002,-1.25866 -13.1337,-1.7963 -4.5331,-0.53973 -9.206,-1.01694 -13.993,-1.42955 -4.7896,-0.41051 -9.6842,-0.75436 -14.65724,-1.03152 -4.9707,-0.27924 -10.0116,-0.49179 -15.0948,-0.6335 -5.084,-0.14593 -10.2004,-0.20838 -15.3215,-0.20838 -5.1182,-4.1e-4 -10.2321,0.0625 -15.3132,0.20838 -5.0834,0.14594 -10.1241,0.35426 -15.0948,0.6335 -4.97292,0.27716 -9.86762,0.62101 -14.65712,1.03152 -4.7874,0.41261 -9.4602,0.88982 -13.9933,1.42955 -4.5335,0.53764 -8.91941,1.1378 -13.13365,1.7963 -4.21653,0.66059 -8.25257,1.37744 -12.08671,2.14868 -3.83183,0.76688 -7.45591,1.58585 -10.85221,2.45317 -3.39506,0.86897 -6.55463,1.78587 -9.46165,2.74237 -1.26074,0.44388 -2.46647,0.89399 -3.61741,1.35244 -1.51706,-0.5293 -2.95869,-1.06694 -4.3205,-1.61708 -2.37916,-1.02735 -4.48221,-2.08702 -6.29727,-3.17208 -1.81715,-1.08573 -3.3438,-2.19413 -4.57057,-3.32089 -1.22324,-1.1253 -2.14765,-2.26434 -2.76594,-3.41381 -0.61682,-1.15447 -0.92524,-2.31477 -0.92316,-3.47695 -10e-4,-1.15864 0.30634,-2.31789 0.92316,-3.46904 0.61684,-1.15238 1.54,-2.29498 2.76594,-3.42193 1.2274,-1.12737 2.75321,-2.23559 4.57057,-3.32045 1.81506,-1.08571 3.91811,-2.14453 6.29727,-3.17229 2.37896,-1.02735 5.02986,-2.02136 7.93791,-2.97662 2.90806,-0.95441 6.06763,-1.86715 9.46165,-2.73487 3.39526,-0.86899 7.01934,-1.69212 10.85221,-2.46107 3.83497,-0.76686 7.87123,-1.48372 12.08671,-2.14056 4.2134,-0.66059 8.59915,-1.26283 13.13365,-1.80464 4.5337,-0.53765 9.2066,-1.01276 13.9933,-1.42329 4.7887,-0.41261 9.6833,-0.76061 14.65712,-1.03985 4.9713,-0.27715 10.0122,-0.48556 15.0948,-0.62517 5.0811,-0.14594 10.195,-0.20839 15.3132,-0.20839 5.1211,-6.2e-4 10.2375,0.0625 15.3215,0.20839 5.0826,0.14593 10.1233,0.34802 15.0948,0.62517 4.97364,0.27924 9.86844,0.62724 14.65724,1.03985 4.7864,0.41053 9.4593,0.88564 13.993,1.42329 4.5343,0.54181 8.9203,1.14405 13.1337,1.80464 4.2126,0.65851 8.2463,1.37327 12.0787,2.14056 3.8332,0.76895 7.4573,1.59208 10.8524,2.46107 3.3966,0.86688 6.5586,1.7817 9.4692,2.73487 2.9082,0.95442 5.5592,1.94843 7.9382,2.97662 2.3794,1.02735 4.4822,2.087 6.2972,3.17229 1.8171,1.0857 3.3438,2.19369 4.5707,3.32045 1.2253,1.12738 2.1489,2.26976 2.7655,3.42193 0.6149,1.15031 0.9232,2.30957 0.9232,3.46904 0,0.40844 -0.041,0.81689 -0.1042,1.22532 -0.084,0.40636 -0.1875,0.81271 -0.3439,1.21908 -0.1453,0.40634 -0.3417,0.81271 -0.5709,1.21906 -0.2313,0.40219 -0.498,0.80228 -0.8044,1.20239 -0.3042,0.4022 -0.6439,0.80231 -1.0231,1.2024 -0.3772,0.39803 -0.792,0.79397 -1.2441,1.18782 -0.4543,0.39593 -0.9482,0.7877 -1.4776,1.17947 -0.5272,0.3876 -1.0898,0.77311 -1.6879,1.15656 -0.6001,0.38553 -1.2357,0.76896 -1.9066,1.14822 -0.6711,0.37927 -1.3776,0.75437 -2.1174,1.12529 -0.7398,0.37094 -1.5129,0.73979 -2.3205,1.10237 -0.8107,0.3626 -1.6546,0.72312 -2.5315,1.07738 -0.8399,0.33966 -1.7087,0.67726 -2.6094,1.00859 z"
       style="fill:none;fill-rule:evenodd;stroke:#000000;stroke-width:20.7708"
       id="path278"
       sodipodi:nodetypes="cccccccccccccccccccccscccccscccccccscscccccccsccccccccsccccscscc" /><path
       d="m 679.30822,511.95496 c -0.42719,-0.001 -0.82522,0.0834 -1.19614,0.23756 -0.36885,0.14593 -0.70018,0.37926 -0.97942,0.65642 -0.27924,0.27716 -0.50847,0.61266 -0.66685,0.97943 -0.16671,0.36675 -0.23547,0.76895 -0.23756,1.19614 l -0.36675,100.98935 c -10e-4,0.42512 0.0834,0.82521 0.23756,1.19615 0.14593,0.36885 0.37926,0.70018 0.65641,0.97942 0.27508,0.27923 0.60016,0.50013 0.96901,0.65643 0.36677,0.14593 0.78146,0.25632 1.20657,0.25839 h 0.73143 l 184.82716,0.7106 339.64666,0.18755 -0.3612,-103.8731 c 0,-0.42511 -0.084,-0.83981 -0.2377,-1.20656 l -0.6668,-0.96901 c -0.2792,-0.27716 -0.6127,-0.50222 -0.9794,-0.65642 -0.3688,-0.14593 -0.7794,-0.23965 -1.2065,-0.23757 l -3.0263,0.0103 -213.57058,0.0417 -301.74339,-1.14197 z"
       style="fill:none;fill-rule:evenodd;stroke:#000000;stroke-width:21.4686;stroke-linecap:round;stroke-linejoin:round;paint-order:stroke fill markers"
       id="path279"
       sodipodi:nodetypes="cccccccccccccccccccccc" /><path
       d="m 1220.3107,513.42362 -21.2658,-0.41494 1.7761,101.51561 c 13.7665,18.90611 31.2845,35.06778 46.6269,52.82354 11.3345,12.08879 22.0813,24.84686 33.9306,36.39661 14.5566,5.19325 8.7861,-14.97478 10.004,-22.78817 -0.8335,-31.97808 -0.041,-64.02983 -1.7822,-95.96044 -1.6169,-14.8928 -7.4767,-29.88426 -19.9485,-39.72496 -12.7161,-12.38085 -24.8957,-24.86632 -42.5121,-30.96194"
       style="fill:none;fill-opacity:1;fill-rule:evenodd;stroke:#000000;stroke-width:21.008;stroke-linecap:round;stroke-opacity:1;paint-order:stroke fill markers"
       id="path280"
       sodipodi:nodetypes="ccccccccc" /><path
       d="m 866.57247,624.27742 0.0832,20.78736 0.22996,63.63384 c -41.77865,0.15102 -70.63737,0.30133 -112.41631,0.44907 l -77.23353,-69.72753 c -0.42511,-4.93691 -0.77089,-9.87224 -1.04387,-14.8177 M 1290.7311,704.626 c 0,0.4272 -0.092,0.83728 -0.2377,1.20613 -0.1541,0.36884 -0.3688,0.70054 -0.646,0.97978 -0.2772,0.27924 -0.6105,0.51036 -0.9793,0.65629 -0.3689,0.16455 -0.7691,0.24705 -1.1963,0.24805 l -166.9234,0.90913 -55.6647,-60.00677 -1.6949,-25.17473"
       style="fill:none;fill-rule:evenodd;stroke:#000000;stroke-width:21.4686;stroke-linecap:round;stroke-linejoin:round;paint-order:stroke fill markers"
       id="path281"
       sodipodi:nodetypes="ccsccccccccccc" /></g></svg>
