<?xml version="1.0" encoding="UTF-8" standalone="no"?>
<!-- Created with Inkscape (http://www.inkscape.org/) -->

<svg
   version="1.1"
   id="svg1"
   xml:space="preserve"
   width="99.992744"
   height="148.33653"
   xmlns:inkscape="http://www.inkscape.org/namespaces/inkscape"
   xmlns:sodipodi="http://sodipodi.sourceforge.net/DTD/sodipodi-0.dtd"
   xmlns="http://www.w3.org/2000/svg"
   xmlns:svg="http://www.w3.org/2000/svg"><defs
     id="defs1" /><sodipodi:namedview
     id="namedview1"
     pagecolor="#ffffff"
     bordercolor="#666666"
     borderopacity="1.0"
     inkscape:showpageshadow="2"
     inkscape:pageopacity="0.0"
     inkscape:pagecheckerboard="0"
     inkscape:deskcolor="#d1d1d1" /><inkscape:clipboard
     min="333.63002,-175.52527"
     max="433.62277,-27.18874"
     geom-min="336.95688,-172.13007"
     geom-max="430.25449,-30.526479" /><g
     id="g1"
     transform="matrix(3.7795276,0,0,3.7795276,-333.63003,175.52528)"><rect
       style="fill:#ffffff;fill-opacity:1;fill-rule:evenodd;stroke:#10002d;stroke-width:1.76046;stroke-linecap:round;stroke-opacity:1;paint-order:stroke fill markers"
       id="rect9"
       width="20.140949"
       height="5.5595241"
       x="93.667793"
       y="-40.608723"
       ry="0.15971293" /><path
       style="fill:#d40055;fill-opacity:1;stroke:#10002d;stroke-width:1.76046;stroke-linecap:butt;stroke-linejoin:miter;stroke-opacity:1"
       d="m 89.214106,-31.426174 c 0.160006,0.121723 1.795363,1.600407 1.795363,1.600407 l 9.142271,0.02935 -1.69719,-1.755093"
       id="path9" /><path
       d="m 89.312954,-45.542629 c -0.02214,0 -0.04293,0.0043 -0.06207,0.01255 -0.01912,0.0081 -0.03652,0.01982 -0.05095,0.03426 -0.01443,0.01443 -0.02618,0.03156 -0.03426,0.05063 -0.0081,0.01912 -0.0125,0.04023 -0.0125,0.06234 v 5.240087 c 0,0.01745 0.01325,0.02887 0.01837,0.04454 v 8.696923 l 9.444799,-0.0059 v -8.575852 h 10.560057 0.0381 c 0.0221,0 0.0433,-0.0048 0.0623,-0.01282 0.0191,-0.0081 0.0363,-0.01955 0.0506,-0.03399 0.0144,-0.01443 0.0262,-0.03183 0.0343,-0.05095 0.008,-0.01912 0.0125,-0.03996 0.0125,-0.06207 v -5.240086 c 0,-0.02208 -0.004,-0.04325 -0.0125,-0.06234 -0.008,-0.01912 -0.0198,-0.03625 -0.0343,-0.05063 -0.0144,-0.01443 -0.0316,-0.02618 -0.0506,-0.03426 -0.0191,-0.0081 -0.0402,-0.01255 -0.0623,-0.01255 h -0.15753 z"
       style="fill:#ffffff;fill-opacity:1;fill-rule:evenodd;stroke:#10002d;stroke-width:1.76046;stroke-linecap:round;stroke-opacity:1;paint-order:stroke fill markers"
       id="path10" /><path
       d="m 110.19973,-45.512236 -1.097,-0.02666 0.0716,5.556217 c 0.70647,1.037281 1.60703,1.925057 2.39502,2.899678 0.58235,0.663714 1.13425,1.363957 1.74327,1.998275 0.74994,0.286938 0.45624,-0.817926 0.5206,-1.245315 -0.0367,-1.750299 0.0108,-3.504324 -0.073,-5.252189 -0.0805,-0.815378 -0.37981,-1.63694 -1.02129,-2.177832 -0.65357,-0.679965 -1.27944,-1.365557 -2.18705,-1.702439"
       style="fill:#ffffff;fill-opacity:1;fill-rule:evenodd;stroke:#10002d;stroke-width:1.76046;stroke-linecap:round;stroke-opacity:1;paint-order:stroke fill markers"
       id="path11"
       sodipodi:nodetypes="ccccccccc" /><rect
       style="fill:#ffffff;fill-opacity:1;fill-rule:evenodd;stroke:#10002d;stroke-width:1.76622;stroke-linecap:round;stroke-opacity:1;paint-order:stroke fill markers"
       id="rect14"
       width="20.221079"
       height="5.5595241"
       x="92.458984"
       y="-25.683664"
       ry="0.15971293" /><path
       d="m 98.616361,-30.837152 -9.444794,0.0059 v 0.997532 4.505024 16.1761619 c 0,0.074494 0.0074,0.147215 0.02171,0.2173728 0.01427,0.070158 0.03517,0.1376765 0.06234,0.2020713 0.02715,0.064395 0.0605,0.1256442 0.09909,0.1828595 0.03862,0.057215 0.08248,0.1103103 0.13109,0.1589242 0.04863,0.048635 0.101994,0.092504 0.159204,0.1310948 0.05721,0.038564 0.11819,0.071941 0.182585,0.099086 0.06439,0.027145 0.132188,0.048366 0.202346,0.062623 0.07016,0.014273 0.142874,0.021705 0.217378,0.021705 h 7.293315 c 0.07449,0 0.147215,-0.00743 0.217372,-0.021705 0.07016,-0.014273 0.137672,-0.035494 0.202066,-0.062623 0.06439,-0.027145 0.125655,-0.060501 0.182865,-0.099086 0.05721,-0.038617 0.110596,-0.082481 0.159204,-0.1310948 0.04864,-0.048635 0.0925,-0.1017089 0.13109,-0.1589242 0.03862,-0.057215 0.07194,-0.1184647 0.09909,-0.1828595 0.02715,-0.064395 0.04804,-0.1319134 0.06234,-0.2020713 0.01427,-0.070158 0.0217,-0.1428793 0.0217,-0.2173728 V -24.416114 h 9.968048 c 0.0208,0 0.0402,-0.0048 0.0607,-0.0061 0.0531,-0.0027 0.10653,-0.0058 0.15726,-0.01616 0.0703,-0.01433 0.13808,-0.03544 0.20262,-0.06262 0.0645,-0.0272 0.1258,-0.06041 0.18314,-0.09909 0.0573,-0.03867 0.11076,-0.08265 0.15948,-0.13137 0.0487,-0.04869 0.0927,-0.102139 0.13137,-0.159479 0.0387,-0.05733 0.0719,-0.11861 0.0991,-0.183139 0.0272,-0.06453 0.0483,-0.132323 0.0626,-0.202626 0.0143,-0.07031 0.022,-0.143278 0.022,-0.217933 v -4.173808 c 0,-0.07465 -0.008,-0.147624 -0.022,-0.217933 -0.0143,-0.0703 -0.0354,-0.138086 -0.0626,-0.202621 -0.0272,-0.06453 -0.0604,-0.125811 -0.0991,-0.183144 -0.0387,-0.05733 -0.0827,-0.110763 -0.13137,-0.159479 -0.0487,-0.04874 -0.10215,-0.0927 -0.15948,-0.13137 -0.0573,-0.03867 -0.11861,-0.07188 -0.18314,-0.09909 -0.0341,-0.01438 -0.0713,-0.02224 -0.10716,-0.03312 -0.0319,-0.0097 -0.0623,-0.02278 -0.0955,-0.02951 -0.0703,-0.01433 -0.14328,-0.02197 -0.21794,-0.02197 z"
       style="fill:#ffffff;fill-opacity:1;fill-rule:evenodd;stroke:#10002d;stroke-width:1.76622;stroke-linecap:round;stroke-opacity:1;paint-order:stroke fill markers"
       id="path14"
       sodipodi:nodetypes="ccccssssscsssssscscscscscssscsssssssscsssccc" /><path
       d="m 108.89788,-30.695048 -0.0531,6.272714 c 1.13696,1.325124 2.06749,2.656231 3.2088,3.977537 0.16938,0.290977 0.73535,0.588214 0.74897,0.03808 0.0555,-0.719347 0.01,-1.442932 0.0156,-2.164266 -0.0146,-1.294806 -0.0107,-2.59014 -0.0377,-3.884596 -0.079,-0.782858 -0.2582,-1.644535 -0.85866,-2.201951 -0.65619,-0.689126 -1.2941,-1.445221 -2.15024,-1.896809 -0.26839,-0.136631 -0.57857,-0.15105 -0.87367,-0.140719 z"
       style="fill:#ffffff;fill-opacity:1;fill-rule:evenodd;stroke:#10002d;stroke-width:1.76622;stroke-linecap:round;stroke-opacity:1;paint-order:stroke fill markers"
       id="path18"
       sodipodi:nodetypes="cccccccccc" /></g></svg>
